<?xml version="1.0" encoding="UTF-8"?>
<svg id="Layer_1" data-name="Layer 1" xmlns="http://www.w3.org/2000/svg" version="1.1" viewBox="0 0 236 387">
  <defs>
    <style>
      .cls-1 {
        fill: #000;
        stroke-width: 0px;
      }
    </style>
  </defs>
  <path class="cls-1" d="M118,69.4l70.7,70.7c7.8,7.8,20.5,7.8,28.3,0h0c7.8-7.8,7.8-20.5,0-28.3L118,12.8,19,111.8c-7.8,7.8-7.8,20.5,0,28.3h0c7.8,7.8,20.5,7.8,28.3,0l70.7-70.7ZM118,317.7l-70.7-70.7c-7.8-7.8-20.5-7.8-28.3,0h0c-7.8,7.8-7.8,20.5,0,28.3l99,99,99-99c7.8-7.8,7.8-20.5,0-28.3h0c-7.8-7.8-20.5-7.8-28.3,0l-70.7,70.7Z"/>
</svg>